<?xml version="1.0" encoding="UTF-8" standalone="no"?><!DOCTYPE svg PUBLIC "-//W3C//DTD SVG 1.1//EN" "http://www.w3.org/Graphics/SVG/1.1/DTD/svg11.dtd"><svg width="100%" height="100%" viewBox="0 0 1426 337" version="1.1" xmlns="http://www.w3.org/2000/svg" xmlns:xlink="http://www.w3.org/1999/xlink" xml:space="preserve" xmlns:serif="http://www.serif.com/" style="fill-rule:evenodd;clip-rule:evenodd;stroke-linejoin:round;stroke-miterlimit:2;"><g><path d="M178.266,244.707c0,10.137 -3.821,17.936 -11.463,23.394c-7.486,5.615 -17.702,8.422 -30.647,8.422c-20.275,0 -34.936,-4.133 -43.982,-12.399c0,-0.156 -0.078,-0.234 -0.234,-0.234c-22.926,-25.422 -50.22,-38.133 -81.88,-38.133l-10.06,0c-0,21.367 5.459,40.317 16.376,56.849c10.762,16.376 26.826,29.321 48.193,38.835c21.367,9.358 45.229,14.036 71.587,14.036c37.431,0 66.83,-8.11 88.197,-24.33c21.523,-16.22 32.285,-38.523 32.285,-66.908c-0,-35.56 -17.624,-63.477 -52.872,-83.753c-14.348,-8.266 -32.752,-16.064 -55.211,-23.394c-22.614,-7.174 -38.367,-14.193 -47.257,-21.055c-8.89,-6.707 -13.335,-14.193 -13.335,-22.459c0,-9.514 4.055,-17.39 12.166,-23.628c8.11,-6.239 19.183,-9.358 33.22,-9.358c13.725,-0 24.72,3.665 32.986,10.995c8.11,7.331 12.165,17.624 12.165,30.881l78.138,0c-0,-19.807 -5.147,-37.431 -15.44,-52.872c-10.294,-15.44 -24.721,-27.293 -43.28,-35.559c-18.56,-8.422 -39.537,-12.633 -62.932,-12.633c-23.862,-0 -45.463,3.899 -64.802,11.697c-19.184,7.642 -34,18.326 -44.45,32.05c-10.606,13.725 -15.908,29.633 -15.908,47.725c-0,36.184 21.133,64.569 63.399,85.156c12.945,6.395 29.633,13.023 50.064,19.886c20.431,6.862 34.702,13.491 42.812,19.885c8.11,6.395 12.165,15.362 12.165,26.904Z" style="fill:#3a72ed;fill-rule:nonzero;"/><path d="M259.679,37.665c0,10.606 3.587,19.262 10.762,25.968c7.33,6.707 16.688,10.06 28.073,10.06c11.541,-0 20.899,-3.353 28.074,-10.06c7.174,-6.706 10.761,-15.362 10.761,-25.968c0,-10.605 -3.587,-19.261 -10.761,-25.968c-7.175,-6.706 -16.533,-10.059 -28.074,-10.059c-11.385,-0 -20.743,3.353 -28.073,10.059c-7.175,6.707 -10.762,15.363 -10.762,25.968Zm4.211,298.046c19.34,0 35.872,-7.213 49.597,-21.64c13.724,-14.426 20.587,-31.855 20.587,-52.286l-0,-162.826c-19.34,-0 -35.872,7.213 -49.597,21.64c-13.724,14.426 -20.587,31.855 -20.587,52.287l0,162.825Z" style="fill:#3a72ed;fill-rule:nonzero;"/><path d="M412.445,101.298c-18.091,0 -33.571,6.629 -46.438,19.886c-12.867,13.257 -19.3,29.321 -19.3,48.192l-0,164.932c19.339,-0 35.871,-7.097 49.596,-21.289c13.725,-14.193 20.587,-31.349 20.587,-51.468l0,-89.601c7.019,-12.633 17.234,-18.95 30.647,-18.95c10.45,0 17.546,2.73 21.289,8.188c3.743,5.459 5.615,14.271 5.615,26.436l-0,106.211c-0,11.23 3.821,20.782 11.463,28.659c7.642,7.876 16.844,11.814 27.606,11.814c8.578,-0 15.908,-3.159 21.991,-9.475c6.082,-6.317 9.124,-13.998 9.124,-23.044l-0,-126.798l-0.234,-3.041c6.862,-12.633 17.234,-18.95 31.114,-18.95c10.138,0 17.156,2.73 21.055,8.188c3.899,5.459 5.849,14.115 5.849,25.968l-0,74.395c-0,19.963 6.862,37.08 20.587,51.351c13.725,14.27 30.257,21.406 49.597,21.406l-0,-151.597c-1.248,-57.238 -24.643,-85.858 -70.184,-85.858c-22.147,0 -40.239,6.941 -54.275,20.821c-3.276,2.964 -6.902,4.289 -10.879,3.978c-3.977,-0.312 -7.447,-2.106 -10.41,-5.381c-10.918,-12.945 -26.904,-19.418 -47.959,-19.418c-26.826,0 -48.193,10.606 -64.101,31.817l-2.34,-27.372Z" style="fill:#3a72ed;fill-rule:nonzero;"/><path d="M771.551,248.45l25.734,46.087c17.78,28.073 40.941,42.11 69.482,42.11l34.156,0l-73.225,-121.651c-6.394,-11.854 -5.614,-23.239 2.34,-34.156l65.504,-81.179l-47.257,-0c-23.082,-0 -42.89,10.059 -59.422,30.179l-29.945,39.068l-7.018,9.826l-0,-104.807c-0,-20.432 -6.823,-37.86 -20.47,-52.287c-13.647,-14.427 -30.14,-21.64 -49.48,-21.64l0,262.721c0,20.431 6.824,37.86 20.471,52.286c13.646,14.427 30.14,21.64 49.479,21.64l-0,-67.61l19.651,-20.587Z" style="fill:#3a72ed;fill-rule:nonzero;"/><path d="M910.281,213.592l0.234,12.165c1.559,33.844 12.009,60.67 31.349,80.477c19.339,19.808 44.995,29.711 76.968,29.711c33.22,0 59.578,-10.605 79.073,-31.816c19.495,-21.211 29.243,-49.909 29.243,-86.092l0,-2.573c0,-37.12 -9.67,-66.441 -29.009,-87.964c-19.495,-21.523 -46.009,-32.284 -79.541,-32.284c-22.147,-0 -41.331,4.913 -57.551,14.738c-16.376,9.67 -28.931,23.551 -37.665,41.643c-8.734,18.091 -13.101,38.756 -13.101,61.995Zm69.95,4.445l0.233,-13.101c2.028,-35.872 14.739,-53.807 38.134,-53.807c25.734,-0 38.601,20.821 38.601,62.463l-0,7.252c-0.624,39.615 -13.413,59.422 -38.367,59.422c-12.634,0 -22.225,-4.99 -28.776,-14.972c-6.55,-10.138 -9.825,-25.89 -9.825,-47.257Z" style="fill:#3a72ed;fill-rule:nonzero;"/><path d="M1202.01,101.064c-18.092,0 -33.533,6.707 -46.322,20.12c-12.789,13.412 -19.183,29.555 -19.183,48.426l-0,166.335l10.294,0c16.532,0 30.607,-6.082 42.227,-18.247c11.619,-12.166 17.429,-26.826 17.429,-43.982l-0,-103.638c6.55,-11.229 16.688,-16.844 30.412,-16.844c12.166,0 20.51,2.807 25.033,8.422c4.523,5.459 6.784,14.115 6.784,25.968l0,148.321l11.697,0c16.065,0 29.828,-5.965 41.292,-17.896c11.463,-11.932 17.195,-26.397 17.195,-43.397l-0,-90.069c-0.312,-29.321 -6.317,-51.312 -18.014,-65.973c-11.541,-14.504 -29.009,-21.757 -52.404,-21.757c-27.294,0 -48.661,10.606 -64.101,31.817l-2.339,-27.606Z" style="fill:#3a72ed;fill-rule:nonzero;"/><path d="M1348.23,37.665c0,10.606 3.588,19.262 10.762,25.968c7.33,6.707 16.688,10.06 28.073,10.06c11.542,-0 20.899,-3.353 28.074,-10.06c7.174,-6.706 10.761,-15.362 10.761,-25.968c0,-10.605 -3.587,-19.261 -10.761,-25.968c-7.175,-6.706 -16.532,-10.059 -28.074,-10.059c-11.385,-0 -20.743,3.353 -28.073,10.059c-7.174,6.707 -10.762,15.363 -10.762,25.968Zm4.211,298.046c19.34,0 35.872,-7.213 49.597,-21.64c13.725,-14.426 20.587,-31.855 20.587,-52.286l-0,-162.826c-19.339,-0 -35.872,7.213 -49.596,21.64c-13.725,14.426 -20.588,31.855 -20.588,52.287l0,162.825Z" style="fill:#3a72ed;fill-rule:nonzero;"/></g></svg>